# xmcd
#
# Track frame offsets: 
#        150
#        1852
#        22989
#        25349
#        37448
#        39939
#        54751
#        59080
#        78572
#        80926
#        99214
#        117538
#        119953
#        133190
#        135439
#        149728
#
# Disc length: 2329 seconds
#
# Revision: 0
# Processed by: cddbd v1.5.2PL0 Copyright (c) Steve Scherf et al.
# Submitted via: ExactAudioCopy v1.0b1
#
DISCID=e9091710
DTITLE=Laurente Cavalié - Soli Solet
DYEAR=2010
DGENRE=Blues
TTITLE0=Quicom que truca
TTITLE1=La perneta
TTITLE2=Aquo depend del pè
TTITLE3=Punta d'alba
TTITLE4=Joan de Nivèla
TTITLE5=Joia
TTITLE6=Lo diluns
TTITLE7=La prima del paisan
TTITLE8=Anna
TTITLE9=La rosa deborona
TTITLE10=Los castanhier
TTITLE11=Aquos's cada nueit
TTITLE12=a la bastida
TTITLE13=Una branca de de fenolh
TTITLE14=La valsa de mai
TTITLE15=Mia Sant Joan s'aprocha
EXTD=
EXTT0=
EXTT1=
EXTT2=
EXTT3=
EXTT4=
EXTT5=
EXTT6=
EXTT7=
EXTT8=
EXTT9=
EXTT10=
EXTT11=
EXTT12=
EXTT13=
EXTT14=
EXTT15=
PLAYORDER=
